PathFileType	4	(X/Y/Z)	Walk5.trc
DataRate	CameraRate	NumFrames	NumMarkers	Units	OrigDataRate	OrigDataStartFrame	OrigNumFrames
200.000000	200.000000	8	59	mm	200.000000	403	561
Frame#	Times		LFHD		C7		CLAV		STRN		RBack		LASI		RASI		RACR1		RUA1		RElbow		RFA1		RWRU		RCAR		LACR1		LFA1		LWRR		LCAR		RTH1		RTH2		RTH4		RLFC		LTH1		LTH3		LTH2		LLFC		LTB1		LTB3		LTB2		LTB4		LMT1		LToe		LMMAL		T10		RWRR		LMT5		LTH4		RFHD		LLMAL		RTH3		LPSI		RPSI		RBHD		LElbowM		RMT1		LUA1		RTB1		RMMAL		LBHD		LElbow		RTB2		RTB4		LWRU		RMT5		RElbowM		RTB3		RToe		RLMAL		RCAL		LCAL
			X1	Y1	Z1	X2	Y2	Z2	X3	Y3	Z3	X4	Y4	Z4	X5	Y5	Z5	X6	Y6	Z6	X7	Y7	Z7	X8	Y8	Z8	X9	Y9	Z9	X10	Y10	Z10	X11	Y11	Z11	X12	Y12	Z12	X13	Y13	Z13	X14	Y14	Z14	X15	Y15	Z15	X16	Y16	Z16	X17	Y17	Z17	X18	Y18	Z18	X19	Y19	Z19	X20	Y20	Z20	X21	Y21	Z21	X22	Y22	Z22	X23	Y23	Z23	X24	Y24	Z24	X25	Y25	Z25	X26	Y26	Z26	X27	Y27	Z27	X28	Y28	Z28	X29	Y29	Z29	X30	Y30	Z30	X31	Y31	Z31	X32	Y32	Z32	X33	Y33	Z33	X34	Y34	Z34	X35	Y35	Z35	X36	Y36	Z36	X37	Y37	Z37	X38	Y38	Z38	X39	Y39	Z39	X40	Y40	Z40	X41	Y41	Z41	X42	Y42	Z42	X43	Y43	Z43	X44	Y44	Z44	X45	Y45	Z45	X46	Y46	Z46	X47	Y47	Z47	X48	Y48	Z48	X49	Y49	Z49	X50	Y50	Z50	X51	Y51	Z51	X52	Y52	Z52	X53	Y53	Z53	X54	Y54	Z54	X55	Y55	Z55	X56	Y56	Z56	X57	Y57	Z57	X58	Y58	Z58	X59	Y59	Z59

403	2.015	294.51	1599.9	-32.285	141.21	1425.5	6.1686	269.97	1351.9	-4.6563	352.37	1130	-9.1948	106.32	1317.2	102.47	289.74	949.75	-138.71	312.19	958.7	134.97	224.66	1358.6	171	212.15	1144.6	227.85	191.63	1037.6	248.31	259.87	900.02	246.48	238.06	789.82	261.89	286.12	751.81	253.56	203.52	1367.7	-172.04	258.74	929.96	-259.78	309.87	778.53	-267.79	304.65	821.15	-224.66	231.8	755.31	179.7	308.13	680.04	132.43	241.72	663.5	157.2	258.88	466.61	123.05	225.79	740.64	-167.2	282.78	563.42	-147.44	325.05	670.67	-136.1	289.29	469.07	-138.26	261.64	369.06	-65.719	118.28	247.92	-69.333	171.04	330.4	-137.81	189.03	306.7	-71.63	96.499	74.805	-73.818	119.2	49.07	-101.15	34.345	194.42	-35.362	113.63	1142	5.6333	284.75	798.64	204.47	51.247	84.162	-136.15	254.39	647.9	-159	303.6	1602.5	40.442	9.2391	196.53	-114.58	253.74	571.51	137.48	84.545	975	-39.734	94.489	987.01	74.622	137.6	1550.5	83.283	170.29	1022.3	-173.19	329.97	38.275	42.227	190.52	1160.4	-225.5	272.69	343.19	44.263	192.39	76.777	6.8895	126.59	1557	-43.121	182.03	1040.4	-242.38	243.67	254.83	112.46	250.82	252.85	41.108	252.99	809	-273.89	282.95	21.312	126.1	166.8	1018.7	167.81	229.07	163.23	37.181	373.68	28.929	75.553	173.7	61.917	85.119	127.16	27.766	37.637	-43.7	208.16	-58.529
404	2.02	300.11	1600.3	-32.163	146.53	1426.1	6.3694	275.22	1352.4	-4.4887	357.51	1130.7	-8.8946	111.61	1317.9	102.8	295.52	950.65	-138.3	317.44	959.46	135.3	229.98	1359.3	171.21	218.4	1145.3	228.27	198.66	1038.2	248.85	268.03	901.15	246.31	247.25	790.74	261.65	295.62	753.21	252.97	208.68	1368.2	-171.86	261.58	930.03	-259.4	311.53	778.02	-267.05	306.31	820.76	-224.01	236.86	755.6	179.63	312.17	679.61	131.98	245.67	663.73	157.02	260.76	466.55	123.02	232.26	741.74	-167.31	290.9	565.03	-147.52	332.17	672.68	-136.22	298.26	470.54	-138.18	272.37	370.12	-65.576	131.14	246.53	-68.838	182.3	329.86	-137.44	200.79	306.5	-71.311	113.3	73.705	-73.254	136.62	48.421	-100.62	48.196	191.5	-34.701	118.9	1142.5	5.9888	293.52	800.08	203.97	67.772	81.951	-135.5	261.79	649.28	-159.16	309.21	1603	40.56	23.035	193.07	-113.89	256.74	571.63	137.4	89.937	975.54	-39.684	99.775	987.5	74.677	143.14	1551.1	83.419	173.72	1022.9	-172.95	329.99	38.255	42.239	194.72	1160.8	-225.24	273.93	342.99	44.22	192.58	76.898	6.809	132.14	1557.7	-42.978	185.56	1041	-242.2	244.55	254.76	112.39	251.67	252.74	41.055	255	809.15	-273.8	282.95	21.323	126.11	173.11	1019.3	168.62	229.57	163.22	37.1	373.74	28.882	75.65	173.86	62.11	85.07	127.22	28.005	37.543	-30.314	203.4	-57.789
405	2.025	305.7	1600.7	-32.057	151.84	1426.6	6.5506	280.45	1352.8	-4.3389	362.65	1131.3	-8.5917	116.89	1318.5	103.12	301.34	951.5	-137.86	322.68	960.17	135.58	235.3	1360	171.39	224.63	1146	228.67	205.67	1038.8	249.37	276.15	902.27	246.13	256.43	791.64	261.38	305.11	754.6	252.36	213.83	1368.6	-171.7	264.4	930.04	-259.02	313.13	777.47	-266.36	307.97	820.35	-223.4	241.89	755.85	179.56	316.2	679.15	131.56	249.62	663.91	156.82	262.66	466.47	122.98	238.68	742.79	-167.44	298.95	566.61	-147.6	339.21	674.65	-136.32	307.12	471.96	-138.1	283.05	371.12	-65.431	144.08	245.01	-68.372	193.58	329.2	-137.08	212.58	306.21	-71.004	130.29	72.529	-72.723	154.24	47.71	-100.09	62.214	188.4	-34.085	124.14	1143	6.3181	302.28	801.52	203.45	84.523	79.615	-134.88	269.14	650.63	-159.34	314.81	1603.3	40.662	37.019	189.41	-113.25	259.73	571.71	137.3	95.309	976.04	-39.635	105.06	987.94	74.729	148.67	1551.7	83.543	177.16	1023.5	-172.69	330.02	38.23	42.248	198.94	1161.3	-225	275.19	342.79	44.167	192.77	77.021	6.7241	137.68	1558.3	-42.847	189.07	1041.5	-242.01	245.45	254.67	112.31	252.54	252.64	40.992	256.97	809.25	-273.68	282.96	21.339	126.11	179.42	1019.8	169.43	230.08	163.2	37.011	373.8	28.832	75.753	174.02	62.307	85.02	127.27	28.256	37.446	-16.716	198.38	-57.103
406	2.03	311.27	1601	-31.969	157.15	1427.1	6.7119	285.67	1353.2	-4.2064	367.78	1131.8	-8.2878	122.17	1319.1	103.41	307.19	952.28	-137.38	327.92	960.83	135.83	240.61	1360.7	171.54	230.86	1146.6	229.07	212.65	1039.3	249.88	284.25	903.36	245.95	265.6	792.54	261.09	314.57	755.98	251.74	218.98	1369	-171.56	267.19	930.01	-258.65	314.68	776.89	-265.72	309.65	819.92	-222.85	246.87	756.05	179.48	320.21	678.65	131.16	253.54	664.05	156.59	264.59	466.38	122.94	245.06	743.81	-167.58	306.93	568.15	-147.69	346.16	676.56	-136.39	315.88	473.31	-138.01	293.69	372.06	-65.284	157.13	243.37	-67.933	204.89	328.43	-136.73	224.4	305.82	-70.71	147.47	71.287	-72.239	172.06	46.951	-99.597	76.408	185.11	-33.514	129.37	1143.4	6.6224	311.02	802.95	202.93	101.49	77.169	-134.3	276.44	651.94	-159.52	320.4	1603.6	40.746	51.194	185.55	-112.64	262.72	571.78	137.2	100.66	976.48	-39.586	110.33	988.33	74.779	154.2	1552.3	83.653	180.62	1024	-172.41	330.04	38.201	42.254	203.19	1161.7	-224.77	276.46	342.57	44.104	192.97	77.146	6.6352	143.2	1558.8	-42.729	192.58	1042	-241.8	246.37	254.58	112.22	253.43	252.52	40.917	258.89	809.3	-273.53	282.96	21.359	126.11	185.74	1020.2	170.23	230.61	163.18	36.915	373.86	28.781	75.861	174.18	62.507	84.968	127.32	28.518	37.347	-2.8953	193.11	-56.465
407	2.035	316.83	1601.3	-31.898	162.44	1427.6	6.8527	290.89	1353.6	-4.0909	372.9	1132.3	-7.9851	127.45	1319.6	103.69	313.05	953.01	-136.87	333.17	961.42	136.04	245.93	1361.3	171.68	237.07	1147.2	229.45	219.61	1039.9	250.37	292.31	904.42	245.77	274.75	793.41	260.78	324.02	757.36	251.1	224.13	1369.3	-171.44	269.95	929.93	-258.29	316.18	776.26	-265.13	311.33	819.45	-222.35	251.8	756.21	179.4	324.21	678.13	130.8	257.45	664.14	156.35	266.56	466.28	122.88	251.4	744.77	-167.75	314.82	569.65	-147.78	353.04	678.41	-136.44	324.52	474.59	-137.9	304.26	372.94	-65.136	170.27	241.6	-67.523	216.22	327.54	-136.4	236.25	305.34	-70.431	164.82	69.989	-71.814	190.06	46.157	-99.147	90.781	181.66	-32.992	134.59	1143.8	6.9023	319.76	804.37	202.4	118.66	74.632	-133.78	283.68	653.19	-159.71	325.98	1603.9	40.812	65.562	181.52	-112.08	265.7	571.81	137.09	106	976.88	-39.539	115.61	988.67	74.827	159.72	1552.8	83.75	184.09	1024.5	-172.12	330.07	38.169	42.258	207.46	1162	-224.54	277.77	342.34	44.03	193.18	77.273	6.5423	148.71	1559.3	-42.624	196.1	1042.4	-241.57	247.31	254.48	112.12	254.34	252.4	40.832	260.77	809.3	-273.36	282.97	21.384	126.11	192.08	1020.6	171.01	231.15	163.15	36.812	373.93	28.73	75.973	174.34	62.709	84.913	127.36	28.79	37.246	11.159	187.62	-55.87
408	2.04	322.38	1601.5	-31.846	167.72	1428	6.9724	296.1	1353.9	-3.992	378.01	1132.8	-7.6859	132.71	1320.1	103.95	318.92	953.66	-136.33	338.42	961.94	136.22	251.23	1361.8	171.79	243.27	1147.7	229.81	226.55	1040.3	250.85	300.35	905.46	245.59	283.88	794.26	260.45	333.44	758.71	250.44	229.27	1369.6	-171.33	272.7	929.8	-257.95	317.63	775.59	-264.59	313.03	818.94	-221.9	256.66	756.32	179.3	328.19	677.6	130.46	261.34	664.18	156.09	268.57	466.16	122.81	257.7	745.68	-167.93	322.62	571.1	-147.88	359.83	680.19	-136.46	333.04	475.8	-137.8	314.78	373.77	-64.989	183.51	239.71	-67.142	227.58	326.55	-136.08	248.13	304.78	-70.168	182.34	68.644	-71.463	208.24	45.342	-98.763	105.34	178.05	-32.519	139.8	1144.2	7.1587	328.47	805.76	201.86	136.02	72.023	-133.33	290.85	654.4	-159.91	331.55	1604.1	40.859	80.126	177.32	-111.57	268.7	571.81	136.97	111.32	977.22	-39.495	120.87	988.95	74.872	165.23	1553.2	83.831	187.58	1025	-171.81	330.1	38.133	42.259	211.75	1162.3	-224.33	279.09	342.1	43.946	193.39	77.402	6.4457	154.22	1559.8	-42.533	199.61	1042.8	-241.32	248.28	254.36	112.02	255.28	252.26	40.737	262.6	809.24	-273.17	282.99	21.412	126.11	198.45	1020.9	171.78	231.71	163.11	36.704	374	28.68	76.088	174.51	62.912	84.854	127.41	29.073	37.141	25.456	181.91	-55.316
409	2.045	327.91	1601.6	-31.813	173	1428.3	7.0703	301.3	1354.2	-3.9097	383.12	1133.2	-7.3931	137.97	1320.5	104.19	324.78	954.25	-135.77	343.68	962.38	136.37	256.53	1362.3	171.87	249.46	1148.2	230.16	233.47	1040.7	251.32	308.36	906.46	245.4	292.98	795.08	260.09	342.84	760.05	249.77	234.4	1369.8	-171.24	275.42	929.61	-257.62	319.04	774.88	-264.11	314.74	818.39	-221.51	261.44	756.37	179.19	332.14	677.04	130.15	265.19	664.16	155.83	270.61	466.02	122.74	263.96	746.54	-168.14	330.34	572.5	-147.98	366.54	681.9	-136.46	341.44	476.93	-137.68	325.22	374.52	-64.844	196.84	237.71	-66.791	238.97	325.45	-135.78	260.05	304.13	-69.922	200.03	67.263	-71.196	226.57	44.523	-98.462	120.09	174.29	-32.095	145	1144.4	7.3918	337.18	807.13	201.32	153.57	69.358	-132.95	297.96	655.54	-160.12	337.11	1604.3	40.888	94.885	172.98	-111.1	271.7	571.78	136.84	116.63	977.51	-39.455	126.14	989.18	74.914	170.74	1553.6	83.897	191.08	1025.4	-171.49	330.12	38.093	42.259	216.06	1162.5	-224.12	280.45	341.84	43.851	193.6	77.533	6.3454	159.7	1560.2	-42.459	203.14	1043.1	-241.06	249.29	254.24	111.9	256.24	252.12	40.633	264.4	809.13	-272.96	283	21.445	126.11	204.86	1021.2	172.52	232.27	163.07	36.591	374.06	28.632	76.205	174.67	63.114	84.791	127.44	29.364	37.036	40.005	176.01	-54.796
410	2.05	333.44	1601.7	-31.799	178.26	1428.6	7.1458	306.49	1354.4	-3.8443	388.23	1133.5	-7.1092	143.22	1320.9	104.41	330.62	954.77	-135.2	348.93	962.74	136.49	261.83	1362.7	171.94	255.65	1148.7	230.48	240.37	1041.1	251.76	316.34	907.42	245.21	302.05	795.87	259.72	352.2	761.36	249.09	239.52	1370	-171.18	278.13	929.36	-257.32	320.41	774.12	-263.67	316.47	817.8	-221.16	266.15	756.38	179.08	336.06	676.48	129.86	269.03	664.08	155.55	272.71	465.86	122.66	270.2	747.34	-168.36	337.96	573.84	-148.07	373.18	683.54	-136.44	349.71	477.98	-137.57	335.6	375.22	-64.706	210.28	235.62	-66.471	250.38	324.25	-135.49	272	303.4	-69.694	217.88	65.858	-71.026	245.05	43.718	-98.263	135.04	170.39	-31.722	150.18	1144.7	7.6024	345.86	808.48	200.77	171.3	66.658	-132.66	304.99	656.62	-160.34	342.67	1604.3	40.897	109.84	168.5	-110.67	274.73	571.71	136.71	121.92	977.74	-39.419	131.4	989.35	74.953	176.25	1553.9	83.946	194.61	1025.8	-171.16	330.15	38.051	42.256	220.4	1162.7	-223.92	281.84	341.57	43.746	193.82	77.667	6.2413	165.18	1560.5	-42.402	206.67	1043.3	-240.77	250.32	254.1	111.77	257.23	251.96	40.52	266.15	808.95	-272.73	283.02	21.481	126.11	211.3	1021.4	173.25	232.85	163.02	36.474	374.13	28.586	76.323	174.84	63.315	84.724	127.47	29.662	36.931	54.815	169.93	-54.307
